<svg width="19" height="21" viewBox="0 0 19 21" fill="none" xmlns="http://www.w3.org/2000/svg">
<path d="M15.0309 7H17.0351C17.5885 7 18.0371 7.44772 18.0371 8V20C18.0371 20.5523 17.5885 21 17.0351 21H1.00206C0.448644 21 0 20.5523 0 20V8C0 7.44772 0.448644 7 1.00206 7H3.00619V6C3.00619 2.68629 5.69802 0 9.01857 0C12.3391 0 15.0309 2.68629 15.0309 6V7ZM13.0268 7V6C13.0268 3.79086 11.2322 2 9.01857 2C6.80487 2 5.01031 3.79086 5.01031 6V7H13.0268ZM8.0165 13V15H10.0206V13H8.0165ZM4.00825 13V15H6.01238V13H4.00825ZM12.0248 13V15H14.0289V13H12.0248Z" fill="#3D3D3D"/>
</svg>
